<mxfile host="app.diagrams.net" modified="2024-05-05T22:06:03.857Z" agent="Mozilla/5.0 (X11; Linux x86_64; rv:125.0) Gecko/20100101 Firefox/125.0" etag="8F3sIDyrAmgH1gLZPQU6" version="24.3.1" type="device">
  <diagram name="Page-1" id="OX3fWpJzdSZev5_Wz7j7">
    <mxGraphModel dx="1154" dy="772" grid="1" gridSize="10" guides="1" tooltips="1" connect="1" arrows="1" fold="1" page="1" pageScale="1" pageWidth="850" pageHeight="1100" math="0" shadow="0">
      <root>
        <mxCell id="0" />
        <mxCell id="1" parent="0" />
        <mxCell id="sUl1sjgbjgPHGPNqsyTI-7" style="edgeStyle=orthogonalEdgeStyle;rounded=0;orthogonalLoop=1;jettySize=auto;html=1;exitX=1;exitY=0.5;exitDx=0;exitDy=0;entryX=0.5;entryY=0;entryDx=0;entryDy=0;" edge="1" parent="1" source="sUl1sjgbjgPHGPNqsyTI-1" target="sUl1sjgbjgPHGPNqsyTI-2">
          <mxGeometry relative="1" as="geometry" />
        </mxCell>
        <mxCell id="sUl1sjgbjgPHGPNqsyTI-1" value="Requirement Analysis" style="rounded=1;whiteSpace=wrap;html=1;fontSize=13;" vertex="1" parent="1">
          <mxGeometry x="100" y="120" width="120" height="60" as="geometry" />
        </mxCell>
        <mxCell id="sUl1sjgbjgPHGPNqsyTI-8" style="edgeStyle=orthogonalEdgeStyle;rounded=0;orthogonalLoop=1;jettySize=auto;html=1;exitX=1;exitY=0.5;exitDx=0;exitDy=0;entryX=0.5;entryY=0;entryDx=0;entryDy=0;" edge="1" parent="1" source="sUl1sjgbjgPHGPNqsyTI-2" target="sUl1sjgbjgPHGPNqsyTI-3">
          <mxGeometry relative="1" as="geometry" />
        </mxCell>
        <mxCell id="sUl1sjgbjgPHGPNqsyTI-2" value="System Design" style="rounded=1;whiteSpace=wrap;html=1;fontSize=13;" vertex="1" parent="1">
          <mxGeometry x="200" y="200" width="120" height="60" as="geometry" />
        </mxCell>
        <mxCell id="sUl1sjgbjgPHGPNqsyTI-9" style="edgeStyle=orthogonalEdgeStyle;rounded=0;orthogonalLoop=1;jettySize=auto;html=1;exitX=1;exitY=0.5;exitDx=0;exitDy=0;entryX=0.5;entryY=0;entryDx=0;entryDy=0;" edge="1" parent="1" source="sUl1sjgbjgPHGPNqsyTI-3" target="sUl1sjgbjgPHGPNqsyTI-4">
          <mxGeometry relative="1" as="geometry" />
        </mxCell>
        <mxCell id="sUl1sjgbjgPHGPNqsyTI-3" value="Implementation" style="rounded=1;whiteSpace=wrap;html=1;fontSize=13;" vertex="1" parent="1">
          <mxGeometry x="305" y="280" width="120" height="60" as="geometry" />
        </mxCell>
        <mxCell id="sUl1sjgbjgPHGPNqsyTI-10" style="edgeStyle=orthogonalEdgeStyle;rounded=0;orthogonalLoop=1;jettySize=auto;html=1;exitX=1;exitY=0.5;exitDx=0;exitDy=0;entryX=0.5;entryY=0;entryDx=0;entryDy=0;" edge="1" parent="1" source="sUl1sjgbjgPHGPNqsyTI-4" target="sUl1sjgbjgPHGPNqsyTI-5">
          <mxGeometry relative="1" as="geometry" />
        </mxCell>
        <mxCell id="sUl1sjgbjgPHGPNqsyTI-4" value="Testing" style="rounded=1;whiteSpace=wrap;html=1;fontSize=13;" vertex="1" parent="1">
          <mxGeometry x="400" y="360" width="120" height="60" as="geometry" />
        </mxCell>
        <mxCell id="sUl1sjgbjgPHGPNqsyTI-11" style="edgeStyle=orthogonalEdgeStyle;rounded=0;orthogonalLoop=1;jettySize=auto;html=1;exitX=1;exitY=0.5;exitDx=0;exitDy=0;entryX=0.5;entryY=0;entryDx=0;entryDy=0;" edge="1" parent="1" source="sUl1sjgbjgPHGPNqsyTI-5" target="sUl1sjgbjgPHGPNqsyTI-6">
          <mxGeometry relative="1" as="geometry" />
        </mxCell>
        <mxCell id="sUl1sjgbjgPHGPNqsyTI-5" value="Deployment" style="rounded=1;whiteSpace=wrap;html=1;fontSize=13;" vertex="1" parent="1">
          <mxGeometry x="500" y="450" width="120" height="60" as="geometry" />
        </mxCell>
        <mxCell id="sUl1sjgbjgPHGPNqsyTI-12" style="edgeStyle=orthogonalEdgeStyle;rounded=0;orthogonalLoop=1;jettySize=auto;html=1;exitX=0;exitY=0.5;exitDx=0;exitDy=0;entryX=0.5;entryY=1;entryDx=0;entryDy=0;endArrow=none;endFill=0;" edge="1" parent="1" source="sUl1sjgbjgPHGPNqsyTI-6" target="sUl1sjgbjgPHGPNqsyTI-1">
          <mxGeometry relative="1" as="geometry">
            <mxPoint x="170" y="410" as="targetPoint" />
          </mxGeometry>
        </mxCell>
        <mxCell id="sUl1sjgbjgPHGPNqsyTI-13" style="edgeStyle=orthogonalEdgeStyle;rounded=0;orthogonalLoop=1;jettySize=auto;html=1;exitX=0;exitY=0.5;exitDx=0;exitDy=0;entryX=0.5;entryY=1;entryDx=0;entryDy=0;endArrow=none;endFill=0;" edge="1" parent="1" source="sUl1sjgbjgPHGPNqsyTI-6" target="sUl1sjgbjgPHGPNqsyTI-2">
          <mxGeometry relative="1" as="geometry" />
        </mxCell>
        <mxCell id="sUl1sjgbjgPHGPNqsyTI-14" style="edgeStyle=orthogonalEdgeStyle;rounded=0;orthogonalLoop=1;jettySize=auto;html=1;exitX=0;exitY=0.5;exitDx=0;exitDy=0;entryX=0.5;entryY=1;entryDx=0;entryDy=0;endArrow=none;endFill=0;" edge="1" parent="1" source="sUl1sjgbjgPHGPNqsyTI-6" target="sUl1sjgbjgPHGPNqsyTI-3">
          <mxGeometry relative="1" as="geometry" />
        </mxCell>
        <mxCell id="sUl1sjgbjgPHGPNqsyTI-15" style="edgeStyle=orthogonalEdgeStyle;rounded=0;orthogonalLoop=1;jettySize=auto;html=1;exitX=0;exitY=0.5;exitDx=0;exitDy=0;entryX=0.5;entryY=1;entryDx=0;entryDy=0;endArrow=none;endFill=0;" edge="1" parent="1" source="sUl1sjgbjgPHGPNqsyTI-6" target="sUl1sjgbjgPHGPNqsyTI-4">
          <mxGeometry relative="1" as="geometry" />
        </mxCell>
        <mxCell id="sUl1sjgbjgPHGPNqsyTI-16" style="edgeStyle=orthogonalEdgeStyle;rounded=0;orthogonalLoop=1;jettySize=auto;html=1;exitX=0;exitY=0.5;exitDx=0;exitDy=0;entryX=0.5;entryY=1;entryDx=0;entryDy=0;endArrow=none;endFill=0;" edge="1" parent="1" source="sUl1sjgbjgPHGPNqsyTI-6" target="sUl1sjgbjgPHGPNqsyTI-5">
          <mxGeometry relative="1" as="geometry" />
        </mxCell>
        <mxCell id="sUl1sjgbjgPHGPNqsyTI-6" value="Maintenance" style="rounded=1;whiteSpace=wrap;html=1;fontSize=13;" vertex="1" parent="1">
          <mxGeometry x="600" y="540" width="120" height="60" as="geometry" />
        </mxCell>
      </root>
    </mxGraphModel>
  </diagram>
</mxfile>
